# xmcd
# 
# Track frame offsets:
#     182
#     62165
#     121270
#     144232
#     209682
# 
# Disc length: 3368
# 
# Revision: 1
# Processed by: cddbd v1.5.2PL0 Copyright (c) Steve Scherf et al.
# Submitted via: fre:ac v1.0.17
# 
DISCID=480d2605
DTITLE=Ulster Orchestra, Vernon Handley - Moeran: Symphony in G minor
DYEAR=1987
DGENRE=Classical
TTITLE0=Moeran: Symphony in G minor: Allegro
TTITLE1=Moeran: Symphony in G minor: Lento
TTITLE2=Moeran: Symphony in G minor: Vivace
TTITLE3=Moeran: Symphony in G minor: Lento - Allegro molto
TTITLE4=Moeran: Overture for a Masque
EXTD=Producer Brian Couzens\nEngineer Ralph Couzens\nRecorded Ulster Hall Belfast September 1987\nChandos CHAN 8577\n\nOK20
EXTT0=
EXTT1=
EXTT2=
EXTT3=
EXTT4=
PLAYORDER=
